<?xml version="1.0" encoding="utf-8"?>
<!-- Generator: Adobe Illustrator 22.0.1, SVG Export Plug-In . SVG Version: 6.00 Build 0)  -->
<svg version="1.1" id="OBJECTS" xmlns="http://www.w3.org/2000/svg" xmlns:xlink="http://www.w3.org/1999/xlink" x="0px" y="0px"
	 viewBox="0 0 500 367" style="enable-background:new 0 0 500 367;" xml:space="preserve">
<style type="text/css">
	.st0{fill:url(#SVGID_1_);}
	.st1{fill:url(#SVGID_2_);}
	.st2{fill:url(#SVGID_3_);}
	.st3{fill:url(#SVGID_4_);}
	.st4{fill:#FFFFFF;}
	.st5{fill:#DDDDDD;}
	.st6{fill:#D1D1D1;}
</style>
<g>
	
		<linearGradient id="SVGID_1_" gradientUnits="userSpaceOnUse" x1="58.9331" y1="283.7852" x2="454.9331" y2="20.7853" gradientTransform="matrix(-1 0 0 -1 498.7466 368)">
		<stop  offset="0" style="stop-color:#9E7CFC"/>
		<stop  offset="1" style="stop-color:#4C75F3"/>
	</linearGradient>
	<path class="st0" d="M11.6,224c-1.8,67.5,48.7,122.2,114,122.2c67,0,77-34.2,114.2-34.2c33.2,0,42.6,14.7,96.5,14.7
		c87.4,0,150.8-66.6,150.8-148.9S416.2,28.7,328.8,28.7c-89.1,0-111.3,63.1-141.3,78.1C159.1,121,15.2,87,11.6,224z"/>
	
		<linearGradient id="SVGID_2_" gradientUnits="userSpaceOnUse" x1="160.8997" y1="437.3166" x2="556.8997" y2="174.3166" gradientTransform="matrix(-1 0 0 -1 498.7466 368)">
		<stop  offset="0" style="stop-color:#9E7CFC"/>
		<stop  offset="1" style="stop-color:#4C75F3"/>
	</linearGradient>
	<circle class="st1" cx="159.5" cy="49.1" r="36"/>
	
		<linearGradient id="SVGID_3_" gradientUnits="userSpaceOnUse" x1="-2.6151" y1="191.1118" x2="393.3849" y2="-71.8882" gradientTransform="matrix(-1 0 0 -1 498.7466 368)">
		<stop  offset="0" style="stop-color:#9E7CFC"/>
		<stop  offset="1" style="stop-color:#4C75F3"/>
	</linearGradient>
	<circle class="st2" cx="251.2" cy="343" r="14.9"/>
	
		<linearGradient id="SVGID_4_" gradientUnits="userSpaceOnUse" x1="169.1846" y1="449.7913" x2="565.1846" y2="186.7913" gradientTransform="matrix(-1 0 0 -1 498.7466 368)">
		<stop  offset="0" style="stop-color:#9E7CFC"/>
		<stop  offset="1" style="stop-color:#4C75F3"/>
	</linearGradient>
	<circle class="st3" cx="84.4" cy="81" r="14.9"/>
</g>
<path class="st4" d="M239.7,148.2c-31.9,0-57.8,25.9-57.8,57.8s25.9,57.8,57.8,57.8s57.8-25.9,57.8-57.8S271.6,148.2,239.7,148.2z
	 M239.7,246.3c-22.3,0-40.3-18.1-40.3-40.3c0-22.3,18.1-40.3,40.3-40.3c22.3,0,40.3,18.1,40.3,40.3
	C280,228.3,261.9,246.3,239.7,246.3z"/>
<path class="st4" d="M247.9,186.2c0-4.6-3.7-8.3-8.3-8.3s-8.3,3.7-8.3,8.3l4.1,31.1c0,2.3,1.8,4.1,4.1,4.1s4.1-1.8,4.1-4.1
	L247.9,186.2z"/>
<circle class="st4" cx="239.7" cy="230.3" r="5.8"/>
<g>
	<g>
		<path class="st4" d="M155.6,263.1c0,4.8-3.9,8.4-8.9,8.4c-5.1,0-8.9-3.6-8.9-8.4v-16.6H99.4c-5.4,0-9.2-4.3-9.2-9
			c0-0.7,0.5-3.3,1.5-5.1l31.5-75.8c1.3-3.1,4.6-5.1,7.9-5.1c4.3,0,8.9,3.9,8.9,8.5c0,0.8,0,1.8-0.5,3c-4.8,11-23.3,56.1-28,67.1
			h26.6v-28.5c0-4.8,3.8-8.4,8.9-8.4c4.8,0,8.9,3.6,8.9,8.4v28.5h4.6c4.8,0,8.5,3.8,8.5,8.2c0,4.6-3.8,8.2-8.5,8.2h-4.6v16.6H155.6z
			"/>
	</g>
	<g>
		<circle class="st5" cx="98.8" cy="236" r="3.7"/>
		<g>
			<path class="st6" d="M96,236c0-1.9,1.4-3.5,3.3-3.7c-0.1,0-0.3,0-0.4,0c-2.1,0-3.7,1.7-3.7,3.7s1.7,3.7,3.7,3.7
				c0.2,0,0.3,0,0.4,0C97.4,239.5,96,237.9,96,236z"/>
		</g>
	</g>
	<g>
		<path class="st5" d="M210.7,241.7c3.1,4-1.5,8.5-5.5,5.5C202.2,243.2,206.7,238.7,210.7,241.7z"/>
		<g>
			<path class="st6" d="M205.1,244.4c0-1.9,1.4-3.5,3.3-3.7c-1.1-0.1-2.4,0.1-4.2,3.3c-0.3,2.3,1.5,4.2,3.7,4.2c0.2,0,0.3,0,0.4,0
				C206.6,247.9,205.1,246.4,205.1,244.4z"/>
		</g>
	</g>
	<g>
		<path class="st5" d="M244.9,184.9c0.4,2.5-1.8,4.7-4.3,4.3c-1.6-0.2-2.9-1.5-3.1-3.1c-0.4-2.5,1.8-4.7,4.3-4.3
			C243.4,182.1,244.7,183.4,244.9,184.9z"/>
		<g>
			<path class="st6" d="M238.4,185.5c0-1.9,1.4-3.5,3.3-3.7c-2.1-0.2-3.8,1.1-4.2,3.3c-0.3,2.3,1.5,4.2,3.7,4.2c0.2,0,0.3,0,0.4,0
				C239.8,189,238.4,187.4,238.4,185.5z"/>
		</g>
	</g>
	<g>
		<circle class="st5" cx="147.6" cy="224.3" r="4.9"/>
		<g>
			<path class="st6" d="M143.9,224.3c0-2.5,1.9-4.5,4.3-4.8c-0.2,0-0.4,0-0.6,0c-2.7,0-4.9,2.2-4.9,4.9s2.2,4.9,4.9,4.9
				c0.2,0,0.4,0,0.6,0C145.7,228.9,143.9,226.8,143.9,224.3z"/>
		</g>
	</g>
	<g>
		<ellipse transform="matrix(0.1602 -0.9871 0.9871 0.1602 58.2454 389.4593)" class="st5" cx="258" cy="160.5" rx="5.8" ry="5.8"/>
		<g>
			<path class="st6" d="M253.5,160.5c0-3,2.2-5.4,5.1-5.8c-0.2,0-0.5,0-0.7,0c-3.2,0-5.8,2.6-5.8,5.8s2.6,5.8,5.8,5.8
				c0.2,0,0.5,0,0.7,0C255.8,165.9,253.5,163.5,253.5,160.5z"/>
		</g>
	</g>
	<g>
		<circle class="st5" cx="194" cy="196.8" r="4.9"/>
		<g>
			<path class="st6" d="M190.3,196.8c0-2.5,1.9-4.5,4.3-4.8c-0.2,0-0.4,0-0.6,0c-2.7,0-4.9,2.2-4.9,4.9s2.2,4.9,4.9,4.9
				c0.2,0,0.4,0,0.6,0C192.2,201.4,190.3,199.3,190.3,196.8z"/>
		</g>
	</g>
	<g>
		<path class="st5" d="M130.7,173.5c-3.1,0.4-5.5,3-5.5,6.2c0,2.9,2,5.3,4.7,6c1.6-3.9,3.1-7.5,4.4-10.4c-1.1-1.1-2.6-1.8-4.3-1.8
			C130.2,173.4,130.5,173.4,130.7,173.5z"/>
		<path class="st6" d="M125.6,175.2c0.3-0.3,0.6-0.5,0.9-0.8C126.2,174.7,125.9,174.9,125.6,175.2z"/>
		<path class="st6" d="M124.5,176.7c0.3-0.5,0.6-1,1.1-1.4C125.2,175.7,124.8,176.1,124.5,176.7z"/>
		<path class="st6" d="M124,177.8c0.1-0.4,0.3-0.8,0.5-1.1C124.3,177,124.2,177.4,124,177.8z"/>
		<path class="st6" d="M130,173.4L130,173.4c-1.3,0-2.5,0.4-3.5,1.1C127.5,173.8,128.7,173.4,130,173.4L130,173.4z"/>
		<path class="st6" d="M123.8,180.2c0.3,3.1,2.9,5.5,6,5.6l0,0C126.7,185.7,124.1,183.3,123.8,180.2z"/>
		<path class="st6" d="M129.8,185.8c0-0.1,0.1-0.1,0.1-0.2c-2.7-0.7-4.7-3.1-4.7-6c0-3.2,2.4-5.8,5.5-6.2c-0.2,0-0.5,0-0.7,0l0,0
			c-1.3,0-2.5,0.4-3.5,1.1c-0.3,0.2-0.6,0.5-0.9,0.8c-0.4,0.4-0.8,0.9-1.1,1.4c-0.2,0.4-0.3,0.7-0.5,1.1c-0.2,0.6-0.3,1.2-0.3,1.8
			c0,0.2,0,0.4,0,0.6C124.1,183.3,126.7,185.7,129.8,185.8z"/>
	</g>
	<g>
		<circle class="st5" cx="124.1" cy="242.9" r="2.1"/>
		<g>
			<path class="st6" d="M122.5,242.9c0-1.1,0.8-1.9,1.8-2c-0.1,0-0.2,0-0.2,0c-1.1,0-2.1,0.9-2.1,2.1s0.9,2.1,2.1,2.1
				c0.1,0,0.2,0,0.2,0C123.3,244.8,122.5,244,122.5,242.9z"/>
		</g>
	</g>
	<g>
		<circle class="st5" cx="292.2" cy="215.4" r="2.1"/>
		<g>
			<path class="st6" d="M290.6,215.4c0-1.1,0.8-1.9,1.8-2c-0.1,0-0.2,0-0.2,0c-1.1,0-2.1,0.9-2.1,2.1c0,1.1,0.9,2.1,2.1,2.1
				c0.1,0,0.2,0,0.2,0C291.4,217.3,290.6,216.4,290.6,215.4z"/>
		</g>
	</g>
	<g>
		<circle class="st5" cx="248.3" cy="248.1" r="2.1"/>
		<g>
			<path class="st6" d="M246.7,248.1c0-1.1,0.8-1.9,1.8-2c-0.1,0-0.2,0-0.2,0c-1.1,0-2.1,0.9-2.1,2.1s0.9,2.1,2.1,2.1
				c0.1,0,0.2,0,0.2,0C247.5,250,246.7,249.1,246.7,248.1z"/>
		</g>
	</g>
	<g>
		<circle class="st5" cx="241.7" cy="211.1" r="2.1"/>
		<g>
			<path class="st6" d="M240.2,211.1c0-1.1,0.8-1.9,1.8-2c-0.1,0-0.2,0-0.2,0c-1.1,0-2.1,0.9-2.1,2.1s0.9,2.1,2.1,2.1
				c0.1,0,0.2,0,0.2,0C241,213.1,240.2,212.2,240.2,211.1z"/>
		</g>
	</g>
	<g>
		<circle class="st5" cx="218.4" cy="167.9" r="2.1"/>
		<g>
			<path class="st6" d="M216.9,167.9c0-1.1,0.8-1.9,1.8-2c-0.1,0-0.2,0-0.2,0c-1.1,0-2.1,0.9-2.1,2.1c0,1.1,0.9,2.1,2.1,2.1
				c0.1,0,0.2,0,0.2,0C217.7,169.9,216.9,169,216.9,167.9z"/>
		</g>
	</g>
	<g>
		<path class="st5" d="M232.6,195.1c2.1-0.3,4,1.2,4.3,3.3s-1.2,4-3.3,4.3"/>
	</g>
	<g>
		<circle class="st5" cx="152.4" cy="260" r="2.1"/>
		<g>
			<path class="st6" d="M150.9,260c0-1.1,0.8-1.9,1.8-2c-0.1,0-0.2,0-0.2,0c-1.1,0-2.1,0.9-2.1,2.1s0.9,2.1,2.1,2.1
				c0.1,0,0.2,0,0.2,0C151.7,261.9,150.9,261.1,150.9,260z"/>
		</g>
	</g>
	<g>
		<circle class="st5" cx="114.2" cy="193.1" r="2.1"/>
		<g>
			<path class="st6" d="M112.6,193.1c0-1.1,0.8-1.9,1.8-2c-0.1,0-0.2,0-0.2,0c-1.1,0-2.1,0.9-2.1,2.1c0,1.1,0.9,2.1,2.1,2.1
				c0.1,0,0.2,0,0.2,0C113.4,195,112.6,194.1,112.6,193.1z"/>
		</g>
	</g>
</g>
<path class="st4" d="M368.4,144c-31.9,0-57.8,25.9-57.8,57.8s25.9,57.8,57.8,57.8s57.8-25.9,57.8-57.8S400.3,144,368.4,144z
	 M368.4,242.1c-22.3,0-40.3-18.1-40.3-40.3c0-22.3,18.1-40.3,40.3-40.3c22.3,0,40.3,18.1,40.3,40.3
	C408.7,224.1,390.6,242.1,368.4,242.1z"/>
<circle class="st4" cx="368.4" cy="226.1" r="5.8"/>
<path class="st6" d="M337,244c-1.7-0.3-3.2-1.8-3.2-3.8c0-1.9,1.4-3.5,3.3-3.7"/>
<path class="st5" d="M373.6,180.7c0.4,2.5-1.8,4.7-4.3,4.3c-1.6-0.2-2.9-1.5-3.1-3.1c-0.4-2.5,1.8-4.7,4.3-4.3
	C372.1,177.9,373.4,179.2,373.6,180.7z"/>
<ellipse transform="matrix(0.1602 -0.9871 0.9871 0.1602 170.5154 513.0168)" class="st5" cx="386.7" cy="156.3" rx="5.8" ry="5.8"/>
<circle class="st5" cx="322.7" cy="192.6" r="4.9"/>
<path class="st6" d="M421.1,213.4c-1-0.3-1.8-1.2-1.8-2.2c0-1.1,0.8-1.9,1.8-2"/>
<path class="st6" d="M377,241.9c-1.1,0-2.1,0.9-2.1,2.1s0.9,2.1,2.1,2.1"/>
<path class="st6" d="M368.4,207c0,1.2,0.9,2.1,2.1,2.1c0.1,0,0.2,0,0.2,0"/>
<path class="st6" d="M345.1,163.8c0,1.1,0.9,2.1,2.1,2.1c0.1,0,0.2,0,0.2,0"/>
<g>
	<path class="st5" d="M361.3,190.9c2.1-0.3,4,1.2,4.3,3.3c0.3,2.1-1.2,4-3.3,4.3"/>
</g>
</svg>
